<svg data-v-fde0c5aa="" xmlns="http://www.w3.org/2000/svg" viewBox="0 0 300 300" class="iconAbove"><!----><defs data-v-fde0c5aa=""><!----></defs><rect data-v-fde0c5aa="" fill="#FFE9E6" x="0" y="0" width="300px" height="300px" class="logo-background-square"></rect><defs data-v-fde0c5aa=""><!----></defs><g data-v-fde0c5aa="" id="8adba437-54b2-43bd-a37e-74db44d24da1" fill="#3A1C18" transform="matrix(5.30503996948242,0,0,5.30503996948242,13.846153812475205,176.08222758869172)"><path d="M7.89 2.10L7.89 6.55L2.87 6.55L2.87 2.10L1.16 2.10L1.16 12.60L2.87 12.60L2.87 8.14L7.89 8.14L7.89 12.60L9.61 12.60L9.61 2.10ZM15.19 12.74C17.36 12.74 18.95 11.15 18.95 9.10C18.95 7.05 17.36 5.46 15.19 5.46C13.02 5.46 11.43 7.05 11.43 9.10C11.43 11.15 13.02 12.74 15.19 12.74ZM15.19 11.20C14.00 11.20 13.09 10.27 13.09 9.10C13.09 7.93 14.00 7.00 15.19 7.00C16.36 7.00 17.29 7.93 17.29 9.10C17.29 10.27 16.36 11.20 15.19 11.20ZM28.25 5.46C27.34 5.46 26.58 5.88 26.13 6.56C25.67 5.90 24.95 5.46 24.17 5.46C23.47 5.46 22.87 5.79 22.43 6.32L22.43 5.60L20.77 5.60L20.77 12.60L22.43 12.60L22.43 8.33C22.43 7.65 22.93 7.00 23.68 7.00C24.39 7.00 24.94 7.60 24.94 8.33L24.94 12.60L26.60 12.60L26.60 8.33C26.60 7.65 27.09 7.00 27.84 7.00C28.56 7.00 29.10 7.60 29.10 8.33L29.10 12.60L30.77 12.60L30.77 8.16C30.77 6.62 29.73 5.46 28.25 5.46ZM33.86 4.36C34.41 4.36 34.86 3.90 34.86 3.38C34.86 2.82 34.41 2.38 33.86 2.38C33.32 2.38 32.87 2.82 32.87 3.38C32.87 3.90 33.32 4.36 33.86 4.36ZM33.04 12.60L34.69 12.60L34.69 5.60L33.04 5.60ZM44.03 9.07C44.00 6.97 42.46 5.46 40.34 5.46C38.20 5.46 36.59 7.00 36.59 9.10C36.59 11.20 38.19 12.74 40.36 12.74C42.16 12.74 43.51 11.67 43.91 10.15L42.25 10.15C41.95 10.89 41.25 11.36 40.36 11.36C39.18 11.36 38.36 10.54 38.27 9.36L44.01 9.36ZM40.36 6.86C41.27 6.86 41.91 7.37 42.21 8.17L38.41 8.17C38.73 7.39 39.41 6.86 40.36 6.86ZM47.78 12.74C49.18 12.74 50.17 11.85 50.17 10.59C50.17 9.26 49.05 8.73 48.11 8.35C47.43 8.07 47.09 7.93 47.09 7.49C47.09 7.09 47.37 6.86 47.85 6.86C48.30 6.86 48.70 7.07 48.90 7.39L49.95 6.53C49.58 5.93 48.69 5.46 47.74 5.46C46.43 5.46 45.45 6.35 45.45 7.58C45.45 8.82 46.48 9.35 47.53 9.73C48.27 10.03 48.60 10.22 48.60 10.62C48.60 11.06 48.21 11.31 47.72 11.31C47.22 11.31 46.66 11.06 46.45 10.52L45.10 11.13C45.43 12.09 46.60 12.74 47.78 12.74Z"></path></g><defs data-v-fde0c5aa=""><linearGradient data-v-fde0c5aa="" gradientTransform="rotate(25)" id="26018afd-bd3f-4e2e-bbda-af5ef83d4444" x1="0%" y1="0%" x2="100%" y2="0%"><stop data-v-fde0c5aa="" offset="0%" stop-color="#FF5A20" stop-opacity="1"></stop><stop data-v-fde0c5aa="" offset="100%" stop-color="#FFACC7" stop-opacity="1"></stop></linearGradient></defs><g data-v-fde0c5aa="" id="2e8251c5-0299-4371-8a99-aaa9b722baf1" stroke="none" fill="url(#26018afd-bd3f-4e2e-bbda-af5ef83d4444)" transform="matrix(3.5278513773345948,0,0,3.5278513773345948,93.55437796264648,56.33156694396973)"><path d="M16 32c8.837 0 16-7.163 16-16S24.837 0 16 0 0 7.163 0 16s7.163 16 16 16zM14.817 6.421h2v8.886h8.887v2H14.817V6.421zm-5.959.437h2v14.283h14.283v2H8.858V6.858z"></path></g><!----></svg>